<?xml version="1.0" encoding="UTF-8"?>
<svg width="51px" height="91px" viewBox="0 0 51 91" version="1.1" xmlns="http://www.w3.org/2000/svg" xmlns:xlink="http://www.w3.org/1999/xlink">
    <!-- Generator: Sketch 64 (93537) - https://sketch.com -->
    <title>insitro-logo-web-reversed</title>
    <desc>Created with Sketch.</desc>
    <g id="Layouts" stroke="none" stroke-width="1" fill="none" fill-rule="evenodd">
        <g id="Page:-Home-Rev" transform="translate(-41.000000, -40.000000)">
            <g id="insitro-logo-web-reversed" transform="translate(41.000000, 40.000000)">
                <g id="insitro_icon_TM_reversed" fill-rule="nonzero">
                    <g id="Group">
                        <path d="M33.3375862,30.0099559 C33.3375862,29.1961674 32.665,28.5347137 31.8465517,28.5347137 L30.4122414,28.5347137 C29.5897414,28.5347137 28.9212069,29.2001762 28.9212069,30.0099559 L28.9212069,31.4290749 C28.9212069,32.2428634 29.5937931,32.9043172 30.4122414,32.9043172 L31.8465517,32.9043172 C32.6690517,32.9043172 33.3375862,32.2388546 33.3375862,31.4290749 L33.3375862,30.0099559 Z" id="Path" fill="#A4CACB"></path>
                        <g transform="translate(14.991379, 1.603524)" fill="#FFFFFF">
                            <polygon id="Path" points="4.3475 0.0881938326 0.372758621 6.899163 4.3475 13.7101322 12.292931 13.7101322 16.2676724 6.899163 12.292931 0.0881938326"></polygon>
                            <rect id="Rectangle" x="2.09068966" y="26.6946696" width="12.4631034" height="62.1726432"></rect>
                        </g>
                        <ellipse id="Oval" fill="#A5CBCC" cx="2.51612069" cy="87.5644493" rx="2.20818966" ry="2.18480176"></ellipse>
                        <path d="M17.5358621,20.0440529 C17.5358621,19.5028634 17.0861207,19.0578855 16.5391379,19.0578855 L14.1121552,19.0578855 C13.5651724,19.0578855 13.115431,19.5028634 13.115431,20.0440529 L13.115431,22.4493392 C13.115431,22.9905286 13.5651724,23.4355066 14.1121552,23.4355066 L16.5391379,23.4355066 C17.0861207,23.4355066 17.5358621,22.9905286 17.5358621,22.4493392 L17.5358621,20.0440529 Z" id="Path" fill="#A4CACB"></path>
                        <ellipse id="Oval" fill="#80B0B2" cx="6.48681034" cy="78.09163" rx="2.94560345" ry="2.91440529"></ellipse>
                        <path d="M42.1743966,37.7910573 C42.1743966,36.7086784 41.2789655,35.8227313 40.185,35.8227313 L38.2725862,35.8227313 C37.1786207,35.8227313 36.2831897,36.7086784 36.2831897,37.7910573 L36.2831897,39.6832159 C36.2831897,40.7655947 37.1786207,41.6515419 38.2725862,41.6515419 L40.185,41.6515419 C41.2789655,41.6515419 42.1743966,40.7655947 42.1743966,39.6832159 L42.1743966,37.7910573 Z" id="Path" fill="#80AEB1"></path>
                        <path d="M9.43241379,10.8077533 C9.43241379,10.5351542 9.20956897,10.3146696 8.93405172,10.3146696 L4.03551724,10.3146696 C3.76,10.3146696 3.53715517,10.5351542 3.53715517,10.8077533 L3.53715517,15.6544053 C3.53715517,15.9270044 3.76,16.147489 4.03551724,16.147489 L8.93405172,16.147489 C9.20956897,16.147489 9.43241379,15.9270044 9.43241379,15.6544053 L9.43241379,10.8077533 Z" id="Path" fill="#80AEB1"></path>
                        <path d="M44.3866379,47.0273568 C44.3866379,45.6723789 43.2683621,44.5659471 41.8988793,44.5659471 L39.5083621,44.5659471 C38.1388793,44.5659471 37.0206034,45.6723789 37.0206034,47.0273568 L37.0206034,49.3925551 C37.0206034,50.747533 38.1388793,51.8539648 39.5083621,51.8539648 L41.8988793,51.8539648 C43.2683621,51.8539648 44.3866379,50.747533 44.3866379,49.3925551 L44.3866379,47.0273568 Z" id="Path" fill="#65A1A1"></path>
                        <polygon id="Rectangle" fill="#36898B" transform="translate(4.274447, 3.755454) rotate(180.000000) translate(-4.274447, -3.755454) " points="0.591430171 0.111444936 7.95746465 0.111444936 7.95746465 7.39946256 0.591430171 7.39946256"></polygon>
                        <path d="M19.0066379,68.41837 C19.0066379,66.5222026 17.4386207,64.970793 15.5221552,64.970793 L15.1250862,64.970793 C13.2086207,64.970793 11.6406034,66.5222026 11.6406034,68.41837 L11.6406034,68.8112335 C11.6406034,70.7074009 13.2086207,72.2588106 15.1250862,72.2588106 L15.5221552,72.2588106 C17.4386207,72.2588106 19.0066379,70.7074009 19.0066379,68.8112335 L19.0066379,68.41837 Z" id="Path" fill="#65A1A1"></path>
                        <path d="M37.0206034,57.7228634 C37.0206034,56.0992952 35.675431,54.76837 34.0344828,54.76837 L31.1658621,54.76837 C29.5249138,54.76837 28.1797414,56.0992952 28.1797414,57.7228634 L28.1797414,60.5611013 C28.1797414,62.1846696 29.5249138,63.5155947 31.1658621,63.5155947 L34.0344828,63.5155947 C35.675431,63.5155947 37.0206034,62.1846696 37.0206034,60.5611013 L37.0206034,57.7228634 Z" id="Path" fill="#2D7E7F"></path>
                        <g transform="translate(2.836207, 0.000000)" fill="#8F9193">
                            <ellipse id="Oval" cx="30.8336207" cy="70.0740088" rx="2.20818966" ry="2.18480176"></ellipse>
                            <ellipse id="Oval" cx="40.4078448" cy="87.5644493" rx="3.35887931" ry="3.32330396"></ellipse>
                            <ellipse id="Oval" cx="38.1996552" cy="78.09163" rx="2.6012069" ry="2.57365639"></ellipse>
                            <ellipse id="Oval" cx="11.3488793" cy="59.1419824" rx="2.20818966" ry="2.18480176"></ellipse>
                            <path d="M7.66586207,50.6713656 C7.66586207,49.3163877 6.54758621,48.2099559 5.17810345,48.2099559 L4.26241379,48.2099559 C2.89293103,48.2099559 1.77465517,49.3163877 1.77465517,50.6713656 L1.77465517,51.5773568 C1.77465517,52.9323348 2.89293103,54.0387665 4.26241379,54.0387665 L5.17810345,54.0387665 C6.54758621,54.0387665 7.66586207,52.9323348 7.66586207,51.5773568 L7.66586207,50.6713656 Z" id="Path"></path>
                            <path d="M7.66586207,39.975859 C7.66586207,38.8934802 6.77043103,38.007533 5.67646552,38.007533 L2.29327586,38.007533 C1.19931034,38.007533 0.30387931,38.8934802 0.30387931,39.975859 L0.30387931,43.3232159 C0.30387931,44.4055947 1.19931034,45.2915419 2.29327586,45.2915419 L5.67646552,45.2915419 C6.77043103,45.2915419 7.66586207,44.4055947 7.66586207,43.3232159 L7.66586207,39.975859 Z" id="Path"></path>
                            <path d="M33.7792241,17.1296476 C33.7792241,16.5884581 33.3294828,16.1434802 32.7825,16.1434802 L27.4058621,16.1434802 C26.8588793,16.1434802 26.4091379,16.5884581 26.4091379,17.1296476 L26.4091379,22.4493392 C26.4091379,22.9905286 26.8588793,23.4355066 27.4058621,23.4355066 L32.7825,23.4355066 C33.3294828,23.4355066 33.7792241,22.9905286 33.7792241,22.4493392 L33.7792241,17.1296476 Z" id="Path"></path>
                            <path d="M41.1452586,7.89334802 C41.1452586,7.6207489 40.9224138,7.40026432 40.6468966,7.40026432 L35.7483621,7.40026432 C35.4728448,7.40026432 35.25,7.6207489 35.25,7.89334802 L35.25,12.74 C35.25,13.0125991 35.4728448,13.2330837 35.7483621,13.2330837 L40.6468966,13.2330837 C40.9224138,13.2330837 41.1452586,13.0125991 41.1452586,12.74 L41.1452586,7.89334802 Z" id="Path"></path>
                            <polygon id="Rectangle" transform="translate(40.409830, 2.297570) rotate(180.000000) translate(-40.409830, -2.297570) " points="38.1996147 0.11076344 42.6200457 0.11076344 42.6200457 4.48437577 38.1996147 4.48437577"></polygon>
                            <path d="M17.2441379,27.8251542 C17.2441379,27.0113656 16.5715517,26.3499119 15.7531034,26.3499119 L9.89836207,26.3499119 C9.07586207,26.3499119 8.40732759,27.0153744 8.40732759,27.8251542 L8.40732759,33.6178855 C8.40732759,34.431674 9.07991379,35.0931278 9.89836207,35.0931278 L15.7531034,35.0931278 C16.5756034,35.0931278 17.2441379,34.4276652 17.2441379,33.6178855 L17.2441379,27.8251542 Z" id="Path"></path>
                        </g>
                    </g>
                    <path d="M48.5798687,89 L48.5798687,89.3325635 L47.97593,89.3325635 L47.97593,91 L47.5995624,91 L47.5995624,89.3325635 L47,89.3325635 L47,89 L48.5798687,89 Z M50.6236324,91 L50.5536105,89.8221709 C50.5448578,89.669746 50.5448578,89.4757506 50.5404814,89.2632794 L50.5185996,89.2632794 C50.4704595,89.4387991 50.4091904,89.6743649 50.356674,89.8591224 L50.0153173,90.9676674 L49.6258206,90.9676674 L49.2844639,89.8314088 C49.249453,89.6836028 49.1925602,89.443418 49.1531729,89.2632794 L49.131291,89.2632794 C49.131291,89.448037 49.1225383,89.6374134 49.1181619,89.8221709 L49.04814,91 L48.6849015,91 L48.8249453,89 L49.3894967,89 L49.7177243,89.9792148 C49.7658643,90.1316397 49.7921225,90.2794457 49.8446389,90.4872979 L49.8533917,90.4872979 C49.9015317,90.3117783 49.9452954,90.1362587 49.9846827,89.9930716 L50.3129103,89 L50.8555799,89 L51,91 L50.6236324,91 L50.6236324,91 Z" id="Shape" fill="#FFFFFF"></path>
                </g>
                <rect id="Rectangle" x="0" y="0" width="51" height="101"></rect>
            </g>
        </g>
    </g>
</svg>